<svg width="23" height="14" viewBox="0 0 23 14" fill="none" xmlns="http://www.w3.org/2000/svg">
<path d="M15.25 6C16.91 6 18.24 4.66 18.24 3C18.24 1.34 16.91 0 15.25 0C13.59 0 12.25 1.34 12.25 3C12.25 4.66 13.59 6 15.25 6ZM7.25 6C8.91 6 10.24 4.66 10.24 3C10.24 1.34 8.91 0 7.25 0C5.59 0 4.25 1.34 4.25 3C4.25 4.66 5.59 6 7.25 6ZM7.25 8C4.92 8 0.25 9.17 0.25 11.5V14H14.25V11.5C14.25 9.17 9.58 8 7.25 8ZM15.25 8C14.96 8 14.63 8.02 14.28 8.05C15.44 8.89 16.25 10.02 16.25 11.5V14H22.25V11.5C22.25 9.17 17.58 8 15.25 8Z" fill="white"/>
</svg>
