<svg width="24" height="24" viewBox="0 0 24 24" fill="none" xmlns="http://www.w3.org/2000/svg">
<path d="M18.5117 0.0091325C18.1426 -0.0329064 17.8145 0.0700889 17.5234 0.32022C17.2344 0.570352 17.0742 0.894051 17.0352 1.29342L16.7285 4.42322C16.6895 4.82259 16.7852 5.17781 17.0176 5.4868C17.25 5.79579 17.5508 5.97025 17.9219 6.01229L19.0195 6.1363C18.9121 6.44529 18.7871 6.73535 18.6426 7.0044C18.5 7.27766 18.2754 7.52779 17.9785 7.7569C18.5137 7.67072 18.998 7.50467 19.4375 7.26294C19.873 7.02332 20.2617 6.70593 20.5938 6.31707L21.8125 6.4558C22.1816 6.49783 22.5098 6.39064 22.8008 6.14471C23.0898 5.89458 23.25 5.57088 23.2891 5.17151L23.5957 2.04171C23.6348 1.64445 23.5391 1.29132 23.3066 0.978129C23.0742 0.667041 22.7734 0.494682 22.4023 0.452643L18.5117 0.0091325ZM7.84961 11.9713C10.4277 11.3008 13.2246 11.1999 16.3555 11.9713C16.6113 12.0344 16.877 12.1794 17.0098 12.4001C17.0645 12.4632 17.1152 12.5325 17.1562 12.6082L19.0859 15.511L20.2676 12.0281C20.3809 11.6812 20.5273 11.4542 20.7285 11.3491V11.3449L22.0469 10.2834C22.1875 10.1699 22.3887 10.2015 22.4941 10.3528C22.5996 10.5041 22.5703 10.7206 22.4297 10.8341L21.6602 11.4542C21.7285 11.4836 21.7988 11.5152 21.8691 11.5509L22.7109 10.9582C22.8242 10.8783 22.9785 10.9119 23.0527 11.0359C23.127 11.1578 23.0957 11.3239 22.9824 11.4038L22.5508 11.7065H23.6504C23.8438 11.7065 24.002 11.8767 24.002 12.0848C24.002 12.2929 23.8438 12.4632 23.6504 12.4632H22.6973C22.6777 12.5977 22.5801 12.7721 22.541 12.892L20.4922 19.2461H20.4902C20.3984 19.5236 20.2188 19.7716 19.9648 19.9314C19.3926 20.2929 18.6563 20.0869 18.3203 19.4689L16.4766 16.4169L15.5684 21.7895C15.3672 22.9813 14.7031 23.9986 13.6465 23.9986H10.5586C9.50195 23.9986 8.83789 22.9813 8.63477 21.7895L7.68164 16.1542L5.68164 19.4689C5.3457 20.0848 4.60938 20.2929 4.03711 19.9314C3.78125 19.7695 3.60352 19.5236 3.51172 19.2461H3.50977L1.46094 12.892C1.42188 12.7721 1.32617 12.5977 1.30469 12.4632H0.351563C0.158203 12.4632 0 12.2929 0 12.0848C0 11.8767 0.158203 11.7065 0.351563 11.7065H1.45117L1.01953 11.4038C0.90625 11.3239 0.875 11.1578 0.949219 11.0359C1.02344 10.914 1.17773 10.8804 1.29102 10.9582L2.13281 11.5509C2.20313 11.5173 2.27148 11.4836 2.3418 11.4542L1.57227 10.8341C1.43164 10.7206 1.40234 10.5041 1.50781 10.3549C1.61328 10.2036 1.81445 10.172 1.95508 10.2855L3.27344 11.347V11.3512C3.47461 11.4563 3.62109 11.6833 3.73438 12.0302L4.91602 15.5131L6.8457 12.6103C7.04688 12.2424 7.43164 12.0196 7.83203 11.9776L7.84961 11.9713ZM11.9316 2.11948C14.1133 2.11948 15.8809 4.02174 15.8809 6.36962C15.8809 8.71749 14.1133 10.6197 11.9316 10.6197C9.75 10.6197 7.98242 8.71749 7.98242 6.36962C7.98242 4.02385 9.75 2.11948 11.9316 2.11948ZM19.6875 4.14576L20.3223 4.25506L20.2324 4.85832L19.5977 4.74902L19.6875 4.14576ZM20.3711 3.92506L19.7383 3.81575C19.7988 2.97708 19.7363 2.49573 19.8613 1.66757C19.9063 1.36278 20.1738 1.15469 20.457 1.20514C20.7402 1.25559 20.9336 1.54145 20.8887 1.84623C20.7617 2.6723 20.5586 3.1095 20.3711 3.92506Z" fill="white"/>
</svg>
