<svg width="16" height="11" viewBox="0 0 16 11" fill="none" xmlns="http://www.w3.org/2000/svg">
<path d="M10.9091 4.56322C12.1164 4.56322 13.0836 3.58868 13.0836 2.3814C13.0836 1.17413 12.1164 0.199585 10.9091 0.199585C9.70182 0.199585 8.72727 1.17413 8.72727 2.3814C8.72727 3.58868 9.70182 4.56322 10.9091 4.56322ZM5.09091 4.56322C6.29818 4.56322 7.26545 3.58868 7.26545 2.3814C7.26545 1.17413 6.29818 0.199585 5.09091 0.199585C3.88364 0.199585 2.90909 1.17413 2.90909 2.3814C2.90909 3.58868 3.88364 4.56322 5.09091 4.56322ZM5.09091 6.01777C3.39636 6.01777 0 6.86868 0 8.56322V10.3814H10.1818V8.56322C10.1818 6.86868 6.78545 6.01777 5.09091 6.01777ZM10.9091 6.01777C10.6982 6.01777 10.4582 6.03231 10.2036 6.05413C11.0473 6.66504 11.6364 7.48686 11.6364 8.56322V10.3814H16V8.56322C16 6.86868 12.6036 6.01777 10.9091 6.01777Z" fill="#5E72E4"/>
</svg>
