<svg width="25" height="24" viewBox="0 0 25 24" fill="none" xmlns="http://www.w3.org/2000/svg">
<mask id="path-1-outside-1_1_1438" maskUnits="userSpaceOnUse" x="-0.5" y="-1" width="26" height="26" fill="black">
<rect fill="white" x="-0.5" y="-1" width="26" height="26"/>
<path d="M5.64062 21.6657V9.087H1.19727V21.9902H5.38281C5.25681 22.1843 5.17543 22.404 5.14453 22.6334L5.13281 22.6882H0.849609C0.75756 22.6882 0.669222 22.6518 0.603769 22.5871C0.538316 22.5223 0.501028 22.4343 0.5 22.3421V8.89932C0.501018 8.76315 0.554957 8.63273 0.650391 8.53568C0.698102 8.48794 0.75474 8.45007 0.817073 8.42424C0.879405 8.39841 0.94621 8.38513 1.01367 8.38514H5.64062V0.613883C5.64047 0.533538 5.65628 0.453964 5.68712 0.37979C5.71797 0.305615 5.76325 0.23832 5.82031 0.18182C5.87696 0.124285 5.94446 0.0785852 6.01889 0.0473734C6.09332 0.0161616 6.17321 5.95599e-05 6.25391 1.83926e-06H18.6914C18.772 -0.000196187 18.8518 0.0155982 18.9262 0.0464713C19.0006 0.0773443 19.0682 0.122683 19.125 0.179865L19.1523 0.209191C19.252 0.320358 19.307 0.464531 19.3066 0.613883V8.38514H23.9941C24.1298 8.38541 24.2597 8.43956 24.3555 8.53568C24.4511 8.63177 24.5052 8.7617 24.5059 8.89736V22.3402C24.5059 22.433 24.469 22.522 24.4035 22.5876C24.3379 22.6533 24.249 22.6901 24.1562 22.6901H19.8672L19.8555 22.6354C19.825 22.4059 19.7436 22.1861 19.6172 21.9922H23.8027V9.08896H19.3105V21.6012C19.2617 21.5386 19.207 21.4702 19.1484 21.392C19.0238 21.2277 18.881 21.0782 18.7227 20.9462L18.6172 20.8622V0.697949H6.33789V20.9013L6.28711 20.9423C6.1271 21.0731 5.98348 21.2228 5.85938 21.3881C5.77539 21.4976 5.70312 21.5836 5.64062 21.6657ZM14.9766 20.6628C15.5917 21.081 16.2597 21.4157 16.9629 21.6579C18.3926 22.1408 18.3867 21.9609 18.3867 24.0039H13.6172L14.9844 20.6667L14.9766 20.6628ZM9.92969 20.6628C9.31426 21.0806 8.64637 21.4152 7.94336 21.6579C6.51367 22.1408 6.51758 21.9609 6.51758 24.0039H11.2891L9.92188 20.6667L9.92969 20.6628ZM10.9062 19.7693C10.9414 19.4858 10.1074 18.4164 9.95508 17.8964C9.62695 17.3763 9.51172 16.5455 9.86914 16.002C10.0098 15.783 9.94922 15.5934 9.94922 15.2923C9.94922 12.305 15.1797 12.303 15.1797 15.2923C15.1797 15.6716 15.0957 15.7595 15.2988 16.0587C15.6406 16.5533 15.4648 17.4272 15.1758 17.8983C14.9805 18.4399 14.1152 19.4624 14.1797 19.7693C14.2344 21.3021 10.9023 21.2512 10.9121 19.7693H10.9062ZM12.8145 22.4203H13C13.0394 22.4206 13.0785 22.413 13.115 22.3981C13.1514 22.3832 13.1846 22.3612 13.2126 22.3334C13.2405 22.3056 13.2627 22.2726 13.2778 22.2361C13.293 22.1997 13.3008 22.1607 13.3008 22.1212V21.6325C13.3008 21.5526 13.2691 21.476 13.2127 21.4196C13.1563 21.3631 13.0798 21.3314 13 21.3314H11.916C11.8766 21.3314 11.8376 21.3392 11.8012 21.3543C11.7648 21.3695 11.7318 21.3917 11.704 21.4197C11.6762 21.4477 11.6543 21.4809 11.6394 21.5174C11.6245 21.5539 11.6169 21.593 11.6172 21.6325V22.1193C11.6169 22.1587 11.6245 22.1978 11.6394 22.2343C11.6543 22.2708 11.6762 22.304 11.704 22.332C11.7318 22.36 11.7648 22.3822 11.8012 22.3974C11.8376 22.4125 11.8766 22.4203 11.916 22.4203H12.1113L11.7539 24H13.1738L12.8301 22.4203H12.8145ZM20.6621 15.7732H22.1113C22.1426 15.7732 22.1699 15.7928 22.1699 15.8143V16.9541C22.1699 16.9775 22.1426 16.999 22.1113 16.999H20.6621C20.6309 16.999 20.6035 16.9795 20.6035 16.9541V15.8123C20.6035 15.7908 20.6309 15.7713 20.6621 15.7713V15.7732ZM2.84375 15.7713H4.29297C4.32422 15.7713 4.35156 15.7908 4.35156 15.8123V16.9521C4.35156 16.9756 4.32422 16.9971 4.29297 16.9971H2.84375C2.8125 16.9971 2.78516 16.9775 2.78516 16.9521V15.8123C2.78516 15.7908 2.8125 15.7713 2.84375 15.7713ZM20.6699 13.2825H22.1191C22.1504 13.2825 22.1777 13.3021 22.1777 13.3255V14.4673C22.1777 14.4888 22.1504 14.5103 22.1191 14.5103H20.6699C20.6387 14.5103 20.6113 14.4907 20.6113 14.4673V13.3255C20.6113 13.2981 20.6387 13.2825 20.6699 13.2825ZM20.6699 10.7898H22.1191C22.1504 10.7898 22.1777 10.8094 22.1777 10.8328V11.9726C22.1777 11.9941 22.1504 12.0156 22.1191 12.0156H20.6699C20.6387 12.0156 20.6113 11.9961 20.6113 11.9726V10.8328C20.6113 10.8094 20.6387 10.7898 20.6699 10.7898ZM2.84375 13.2825H4.29297C4.32422 13.2825 4.35156 13.3021 4.35156 13.3255V14.4673C4.35156 14.4888 4.32422 14.5103 4.29297 14.5103H2.84375C2.8125 14.5103 2.78516 14.4907 2.78516 14.4673V13.3255C2.78516 13.2981 2.8125 13.2825 2.84375 13.2825ZM2.84375 10.7898H4.29297C4.32422 10.7898 4.35156 10.8094 4.35156 10.8328V11.9726C4.35156 11.9941 4.32422 12.0156 4.29297 12.0156H2.84375C2.8125 12.0156 2.78516 11.9961 2.78516 11.9726V10.8328C2.78516 10.8094 2.8125 10.7898 2.84375 10.7898ZM15.2246 12.3167H17.0352C17.0504 12.3172 17.0648 12.3236 17.0753 12.3346C17.0859 12.3455 17.0918 12.3601 17.0918 12.3754V14.4379C17.0918 14.453 17.0858 14.4674 17.0752 14.478C17.0646 14.4887 17.0502 14.4946 17.0352 14.4946H16.3047C16.2751 14.1436 16.1935 13.799 16.0625 13.4721C15.93 13.143 15.7395 12.8403 15.5 12.5787C15.413 12.4864 15.3211 12.399 15.2246 12.3167ZM7.91016 12.3167H9.96289C9.80229 12.455 9.65515 12.6081 9.52344 12.7742C9.28566 13.0749 9.10974 13.4197 9.00586 13.7889C8.98047 13.8807 8.95898 13.9687 8.94336 14.0547C8.92773 14.1408 8.91602 14.2248 8.90625 14.3167V14.3695V14.4888H7.91016C7.89495 14.4888 7.88033 14.4829 7.8694 14.4723C7.85847 14.4617 7.85207 14.4473 7.85156 14.4321V12.3793C7.85205 12.3639 7.85838 12.3492 7.86927 12.3383C7.88015 12.3275 7.89477 12.3211 7.91016 12.3206V12.3167ZM14.9785 8.32454H17.0352C17.0504 8.32504 17.0648 8.33145 17.0753 8.34239C17.0859 8.35334 17.0918 8.36797 17.0918 8.38319V10.4418C17.0918 10.4571 17.0859 10.4717 17.0753 10.4826C17.0648 10.4936 17.0504 10.5 17.0352 10.5005H14.9785C14.9631 10.5 14.9485 10.4937 14.9376 10.4828C14.9267 10.4719 14.9204 10.4572 14.9199 10.4418V8.38319C14.9204 8.36779 14.9267 8.35315 14.9376 8.34226C14.9485 8.33136 14.9631 8.32503 14.9785 8.32454ZM11.4434 8.32454H13.5C13.5154 8.32503 13.53 8.33136 13.5409 8.34226C13.5518 8.35315 13.5581 8.36779 13.5586 8.38319V10.4418C13.5581 10.4572 13.5518 10.4719 13.5409 10.4828C13.53 10.4937 13.5154 10.5 13.5 10.5005H11.4375C11.4223 10.5 11.4079 10.4936 11.3973 10.4826C11.3868 10.4717 11.3809 10.4571 11.3809 10.4418V8.38319C11.3809 8.36797 11.3868 8.35334 11.3973 8.34239C11.4079 8.33145 11.4223 8.32504 11.4375 8.32454H11.4434ZM7.91016 8.32454H9.9668C9.98218 8.32503 9.9968 8.33136 10.0077 8.34226C10.0186 8.35315 10.0249 8.36779 10.0254 8.38319V10.4418C10.0249 10.4572 10.0186 10.4719 10.0077 10.4828C9.9968 10.4937 9.98218 10.5 9.9668 10.5005H7.91016C7.89477 10.5 7.88015 10.4937 7.86927 10.4828C7.85838 10.4719 7.85205 10.4572 7.85156 10.4418V8.38319C7.85205 8.36779 7.85838 8.35315 7.86927 8.34226C7.88015 8.33136 7.89477 8.32503 7.91016 8.32454Z"/>
</mask>
<path d="M5.64062 21.6657V9.087H1.19727V21.9902H5.38281C5.25681 22.1843 5.17543 22.404 5.14453 22.6334L5.13281 22.6882H0.849609C0.75756 22.6882 0.669222 22.6518 0.603769 22.5871C0.538316 22.5223 0.501028 22.4343 0.5 22.3421V8.89932C0.501018 8.76315 0.554957 8.63273 0.650391 8.53568C0.698102 8.48794 0.75474 8.45007 0.817073 8.42424C0.879405 8.39841 0.94621 8.38513 1.01367 8.38514H5.64062V0.613883C5.64047 0.533538 5.65628 0.453964 5.68712 0.37979C5.71797 0.305615 5.76325 0.23832 5.82031 0.18182C5.87696 0.124285 5.94446 0.0785852 6.01889 0.0473734C6.09332 0.0161616 6.17321 5.95599e-05 6.25391 1.83926e-06H18.6914C18.772 -0.000196187 18.8518 0.0155982 18.9262 0.0464713C19.0006 0.0773443 19.0682 0.122683 19.125 0.179865L19.1523 0.209191C19.252 0.320358 19.307 0.464531 19.3066 0.613883V8.38514H23.9941C24.1298 8.38541 24.2597 8.43956 24.3555 8.53568C24.4511 8.63177 24.5052 8.7617 24.5059 8.89736V22.3402C24.5059 22.433 24.469 22.522 24.4035 22.5876C24.3379 22.6533 24.249 22.6901 24.1562 22.6901H19.8672L19.8555 22.6354C19.825 22.4059 19.7436 22.1861 19.6172 21.9922H23.8027V9.08896H19.3105V21.6012C19.2617 21.5386 19.207 21.4702 19.1484 21.392C19.0238 21.2277 18.881 21.0782 18.7227 20.9462L18.6172 20.8622V0.697949H6.33789V20.9013L6.28711 20.9423C6.1271 21.0731 5.98348 21.2228 5.85938 21.3881C5.77539 21.4976 5.70312 21.5836 5.64062 21.6657ZM14.9766 20.6628C15.5917 21.081 16.2597 21.4157 16.9629 21.6579C18.3926 22.1408 18.3867 21.9609 18.3867 24.0039H13.6172L14.9844 20.6667L14.9766 20.6628ZM9.92969 20.6628C9.31426 21.0806 8.64637 21.4152 7.94336 21.6579C6.51367 22.1408 6.51758 21.9609 6.51758 24.0039H11.2891L9.92188 20.6667L9.92969 20.6628ZM10.9062 19.7693C10.9414 19.4858 10.1074 18.4164 9.95508 17.8964C9.62695 17.3763 9.51172 16.5455 9.86914 16.002C10.0098 15.783 9.94922 15.5934 9.94922 15.2923C9.94922 12.305 15.1797 12.303 15.1797 15.2923C15.1797 15.6716 15.0957 15.7595 15.2988 16.0587C15.6406 16.5533 15.4648 17.4272 15.1758 17.8983C14.9805 18.4399 14.1152 19.4624 14.1797 19.7693C14.2344 21.3021 10.9023 21.2512 10.9121 19.7693H10.9062ZM12.8145 22.4203H13C13.0394 22.4206 13.0785 22.413 13.115 22.3981C13.1514 22.3832 13.1846 22.3612 13.2126 22.3334C13.2405 22.3056 13.2627 22.2726 13.2778 22.2361C13.293 22.1997 13.3008 22.1607 13.3008 22.1212V21.6325C13.3008 21.5526 13.2691 21.476 13.2127 21.4196C13.1563 21.3631 13.0798 21.3314 13 21.3314H11.916C11.8766 21.3314 11.8376 21.3392 11.8012 21.3543C11.7648 21.3695 11.7318 21.3917 11.704 21.4197C11.6762 21.4477 11.6543 21.4809 11.6394 21.5174C11.6245 21.5539 11.6169 21.593 11.6172 21.6325V22.1193C11.6169 22.1587 11.6245 22.1978 11.6394 22.2343C11.6543 22.2708 11.6762 22.304 11.704 22.332C11.7318 22.36 11.7648 22.3822 11.8012 22.3974C11.8376 22.4125 11.8766 22.4203 11.916 22.4203H12.1113L11.7539 24H13.1738L12.8301 22.4203H12.8145ZM20.6621 15.7732H22.1113C22.1426 15.7732 22.1699 15.7928 22.1699 15.8143V16.9541C22.1699 16.9775 22.1426 16.999 22.1113 16.999H20.6621C20.6309 16.999 20.6035 16.9795 20.6035 16.9541V15.8123C20.6035 15.7908 20.6309 15.7713 20.6621 15.7713V15.7732ZM2.84375 15.7713H4.29297C4.32422 15.7713 4.35156 15.7908 4.35156 15.8123V16.9521C4.35156 16.9756 4.32422 16.9971 4.29297 16.9971H2.84375C2.8125 16.9971 2.78516 16.9775 2.78516 16.9521V15.8123C2.78516 15.7908 2.8125 15.7713 2.84375 15.7713ZM20.6699 13.2825H22.1191C22.1504 13.2825 22.1777 13.3021 22.1777 13.3255V14.4673C22.1777 14.4888 22.1504 14.5103 22.1191 14.5103H20.6699C20.6387 14.5103 20.6113 14.4907 20.6113 14.4673V13.3255C20.6113 13.2981 20.6387 13.2825 20.6699 13.2825ZM20.6699 10.7898H22.1191C22.1504 10.7898 22.1777 10.8094 22.1777 10.8328V11.9726C22.1777 11.9941 22.1504 12.0156 22.1191 12.0156H20.6699C20.6387 12.0156 20.6113 11.9961 20.6113 11.9726V10.8328C20.6113 10.8094 20.6387 10.7898 20.6699 10.7898ZM2.84375 13.2825H4.29297C4.32422 13.2825 4.35156 13.3021 4.35156 13.3255V14.4673C4.35156 14.4888 4.32422 14.5103 4.29297 14.5103H2.84375C2.8125 14.5103 2.78516 14.4907 2.78516 14.4673V13.3255C2.78516 13.2981 2.8125 13.2825 2.84375 13.2825ZM2.84375 10.7898H4.29297C4.32422 10.7898 4.35156 10.8094 4.35156 10.8328V11.9726C4.35156 11.9941 4.32422 12.0156 4.29297 12.0156H2.84375C2.8125 12.0156 2.78516 11.9961 2.78516 11.9726V10.8328C2.78516 10.8094 2.8125 10.7898 2.84375 10.7898ZM15.2246 12.3167H17.0352C17.0504 12.3172 17.0648 12.3236 17.0753 12.3346C17.0859 12.3455 17.0918 12.3601 17.0918 12.3754V14.4379C17.0918 14.453 17.0858 14.4674 17.0752 14.478C17.0646 14.4887 17.0502 14.4946 17.0352 14.4946H16.3047C16.2751 14.1436 16.1935 13.799 16.0625 13.4721C15.93 13.143 15.7395 12.8403 15.5 12.5787C15.413 12.4864 15.3211 12.399 15.2246 12.3167ZM7.91016 12.3167H9.96289C9.80229 12.455 9.65515 12.6081 9.52344 12.7742C9.28566 13.0749 9.10974 13.4197 9.00586 13.7889C8.98047 13.8807 8.95898 13.9687 8.94336 14.0547C8.92773 14.1408 8.91602 14.2248 8.90625 14.3167V14.3695V14.4888H7.91016C7.89495 14.4888 7.88033 14.4829 7.8694 14.4723C7.85847 14.4617 7.85207 14.4473 7.85156 14.4321V12.3793C7.85205 12.3639 7.85838 12.3492 7.86927 12.3383C7.88015 12.3275 7.89477 12.3211 7.91016 12.3206V12.3167ZM14.9785 8.32454H17.0352C17.0504 8.32504 17.0648 8.33145 17.0753 8.34239C17.0859 8.35334 17.0918 8.36797 17.0918 8.38319V10.4418C17.0918 10.4571 17.0859 10.4717 17.0753 10.4826C17.0648 10.4936 17.0504 10.5 17.0352 10.5005H14.9785C14.9631 10.5 14.9485 10.4937 14.9376 10.4828C14.9267 10.4719 14.9204 10.4572 14.9199 10.4418V8.38319C14.9204 8.36779 14.9267 8.35315 14.9376 8.34226C14.9485 8.33136 14.9631 8.32503 14.9785 8.32454ZM11.4434 8.32454H13.5C13.5154 8.32503 13.53 8.33136 13.5409 8.34226C13.5518 8.35315 13.5581 8.36779 13.5586 8.38319V10.4418C13.5581 10.4572 13.5518 10.4719 13.5409 10.4828C13.53 10.4937 13.5154 10.5 13.5 10.5005H11.4375C11.4223 10.5 11.4079 10.4936 11.3973 10.4826C11.3868 10.4717 11.3809 10.4571 11.3809 10.4418V8.38319C11.3809 8.36797 11.3868 8.35334 11.3973 8.34239C11.4079 8.33145 11.4223 8.32504 11.4375 8.32454H11.4434ZM7.91016 8.32454H9.9668C9.98218 8.32503 9.9968 8.33136 10.0077 8.34226C10.0186 8.35315 10.0249 8.36779 10.0254 8.38319V10.4418C10.0249 10.4572 10.0186 10.4719 10.0077 10.4828C9.9968 10.4937 9.98218 10.5 9.9668 10.5005H7.91016C7.89477 10.5 7.88015 10.4937 7.86927 10.4828C7.85838 10.4719 7.85205 10.4572 7.85156 10.4418V8.38319C7.85205 8.36779 7.85838 8.35315 7.86927 8.34226C7.88015 8.33136 7.89477 8.32503 7.91016 8.32454Z" fill="white"/>
<path d="M5.64062 21.6657V9.087H1.19727V21.9902H5.38281C5.25681 22.1843 5.17543 22.404 5.14453 22.6334L5.13281 22.6882H0.849609C0.75756 22.6882 0.669222 22.6518 0.603769 22.5871C0.538316 22.5223 0.501028 22.4343 0.5 22.3421V8.89932C0.501018 8.76315 0.554957 8.63273 0.650391 8.53568C0.698102 8.48794 0.75474 8.45007 0.817073 8.42424C0.879405 8.39841 0.94621 8.38513 1.01367 8.38514H5.64062V0.613883C5.64047 0.533538 5.65628 0.453964 5.68712 0.37979C5.71797 0.305615 5.76325 0.23832 5.82031 0.18182C5.87696 0.124285 5.94446 0.0785852 6.01889 0.0473734C6.09332 0.0161616 6.17321 5.95599e-05 6.25391 1.83926e-06H18.6914C18.772 -0.000196187 18.8518 0.0155982 18.9262 0.0464713C19.0006 0.0773443 19.0682 0.122683 19.125 0.179865L19.1523 0.209191C19.252 0.320358 19.307 0.464531 19.3066 0.613883V8.38514H23.9941C24.1298 8.38541 24.2597 8.43956 24.3555 8.53568C24.4511 8.63177 24.5052 8.7617 24.5059 8.89736V22.3402C24.5059 22.433 24.469 22.522 24.4035 22.5876C24.3379 22.6533 24.249 22.6901 24.1562 22.6901H19.8672L19.8555 22.6354C19.825 22.4059 19.7436 22.1861 19.6172 21.9922H23.8027V9.08896H19.3105V21.6012C19.2617 21.5386 19.207 21.4702 19.1484 21.392C19.0238 21.2277 18.881 21.0782 18.7227 20.9462L18.6172 20.8622V0.697949H6.33789V20.9013L6.28711 20.9423C6.1271 21.0731 5.98348 21.2228 5.85938 21.3881C5.77539 21.4976 5.70312 21.5836 5.64062 21.6657ZM14.9766 20.6628C15.5917 21.081 16.2597 21.4157 16.9629 21.6579C18.3926 22.1408 18.3867 21.9609 18.3867 24.0039H13.6172L14.9844 20.6667L14.9766 20.6628ZM9.92969 20.6628C9.31426 21.0806 8.64637 21.4152 7.94336 21.6579C6.51367 22.1408 6.51758 21.9609 6.51758 24.0039H11.2891L9.92188 20.6667L9.92969 20.6628ZM10.9062 19.7693C10.9414 19.4858 10.1074 18.4164 9.95508 17.8964C9.62695 17.3763 9.51172 16.5455 9.86914 16.002C10.0098 15.783 9.94922 15.5934 9.94922 15.2923C9.94922 12.305 15.1797 12.303 15.1797 15.2923C15.1797 15.6716 15.0957 15.7595 15.2988 16.0587C15.6406 16.5533 15.4648 17.4272 15.1758 17.8983C14.9805 18.4399 14.1152 19.4624 14.1797 19.7693C14.2344 21.3021 10.9023 21.2512 10.9121 19.7693H10.9062ZM12.8145 22.4203H13C13.0394 22.4206 13.0785 22.413 13.115 22.3981C13.1514 22.3832 13.1846 22.3612 13.2126 22.3334C13.2405 22.3056 13.2627 22.2726 13.2778 22.2361C13.293 22.1997 13.3008 22.1607 13.3008 22.1212V21.6325C13.3008 21.5526 13.2691 21.476 13.2127 21.4196C13.1563 21.3631 13.0798 21.3314 13 21.3314H11.916C11.8766 21.3314 11.8376 21.3392 11.8012 21.3543C11.7648 21.3695 11.7318 21.3917 11.704 21.4197C11.6762 21.4477 11.6543 21.4809 11.6394 21.5174C11.6245 21.5539 11.6169 21.593 11.6172 21.6325V22.1193C11.6169 22.1587 11.6245 22.1978 11.6394 22.2343C11.6543 22.2708 11.6762 22.304 11.704 22.332C11.7318 22.36 11.7648 22.3822 11.8012 22.3974C11.8376 22.4125 11.8766 22.4203 11.916 22.4203H12.1113L11.7539 24H13.1738L12.8301 22.4203H12.8145ZM20.6621 15.7732H22.1113C22.1426 15.7732 22.1699 15.7928 22.1699 15.8143V16.9541C22.1699 16.9775 22.1426 16.999 22.1113 16.999H20.6621C20.6309 16.999 20.6035 16.9795 20.6035 16.9541V15.8123C20.6035 15.7908 20.6309 15.7713 20.6621 15.7713V15.7732ZM2.84375 15.7713H4.29297C4.32422 15.7713 4.35156 15.7908 4.35156 15.8123V16.9521C4.35156 16.9756 4.32422 16.9971 4.29297 16.9971H2.84375C2.8125 16.9971 2.78516 16.9775 2.78516 16.9521V15.8123C2.78516 15.7908 2.8125 15.7713 2.84375 15.7713ZM20.6699 13.2825H22.1191C22.1504 13.2825 22.1777 13.3021 22.1777 13.3255V14.4673C22.1777 14.4888 22.1504 14.5103 22.1191 14.5103H20.6699C20.6387 14.5103 20.6113 14.4907 20.6113 14.4673V13.3255C20.6113 13.2981 20.6387 13.2825 20.6699 13.2825ZM20.6699 10.7898H22.1191C22.1504 10.7898 22.1777 10.8094 22.1777 10.8328V11.9726C22.1777 11.9941 22.1504 12.0156 22.1191 12.0156H20.6699C20.6387 12.0156 20.6113 11.9961 20.6113 11.9726V10.8328C20.6113 10.8094 20.6387 10.7898 20.6699 10.7898ZM2.84375 13.2825H4.29297C4.32422 13.2825 4.35156 13.3021 4.35156 13.3255V14.4673C4.35156 14.4888 4.32422 14.5103 4.29297 14.5103H2.84375C2.8125 14.5103 2.78516 14.4907 2.78516 14.4673V13.3255C2.78516 13.2981 2.8125 13.2825 2.84375 13.2825ZM2.84375 10.7898H4.29297C4.32422 10.7898 4.35156 10.8094 4.35156 10.8328V11.9726C4.35156 11.9941 4.32422 12.0156 4.29297 12.0156H2.84375C2.8125 12.0156 2.78516 11.9961 2.78516 11.9726V10.8328C2.78516 10.8094 2.8125 10.7898 2.84375 10.7898ZM15.2246 12.3167H17.0352C17.0504 12.3172 17.0648 12.3236 17.0753 12.3346C17.0859 12.3455 17.0918 12.3601 17.0918 12.3754V14.4379C17.0918 14.453 17.0858 14.4674 17.0752 14.478C17.0646 14.4887 17.0502 14.4946 17.0352 14.4946H16.3047C16.2751 14.1436 16.1935 13.799 16.0625 13.4721C15.93 13.143 15.7395 12.8403 15.5 12.5787C15.413 12.4864 15.3211 12.399 15.2246 12.3167ZM7.91016 12.3167H9.96289C9.80229 12.455 9.65515 12.6081 9.52344 12.7742C9.28566 13.0749 9.10974 13.4197 9.00586 13.7889C8.98047 13.8807 8.95898 13.9687 8.94336 14.0547C8.92773 14.1408 8.91602 14.2248 8.90625 14.3167V14.3695V14.4888H7.91016C7.89495 14.4888 7.88033 14.4829 7.8694 14.4723C7.85847 14.4617 7.85207 14.4473 7.85156 14.4321V12.3793C7.85205 12.3639 7.85838 12.3492 7.86927 12.3383C7.88015 12.3275 7.89477 12.3211 7.91016 12.3206V12.3167ZM14.9785 8.32454H17.0352C17.0504 8.32504 17.0648 8.33145 17.0753 8.34239C17.0859 8.35334 17.0918 8.36797 17.0918 8.38319V10.4418C17.0918 10.4571 17.0859 10.4717 17.0753 10.4826C17.0648 10.4936 17.0504 10.5 17.0352 10.5005H14.9785C14.9631 10.5 14.9485 10.4937 14.9376 10.4828C14.9267 10.4719 14.9204 10.4572 14.9199 10.4418V8.38319C14.9204 8.36779 14.9267 8.35315 14.9376 8.34226C14.9485 8.33136 14.9631 8.32503 14.9785 8.32454ZM11.4434 8.32454H13.5C13.5154 8.32503 13.53 8.33136 13.5409 8.34226C13.5518 8.35315 13.5581 8.36779 13.5586 8.38319V10.4418C13.5581 10.4572 13.5518 10.4719 13.5409 10.4828C13.53 10.4937 13.5154 10.5 13.5 10.5005H11.4375C11.4223 10.5 11.4079 10.4936 11.3973 10.4826C11.3868 10.4717 11.3809 10.4571 11.3809 10.4418V8.38319C11.3809 8.36797 11.3868 8.35334 11.3973 8.34239C11.4079 8.33145 11.4223 8.32504 11.4375 8.32454H11.4434ZM7.91016 8.32454H9.9668C9.98218 8.32503 9.9968 8.33136 10.0077 8.34226C10.0186 8.35315 10.0249 8.36779 10.0254 8.38319V10.4418C10.0249 10.4572 10.0186 10.4719 10.0077 10.4828C9.9968 10.4937 9.98218 10.5 9.9668 10.5005H7.91016C7.89477 10.5 7.88015 10.4937 7.86927 10.4828C7.85838 10.4719 7.85205 10.4572 7.85156 10.4418V8.38319C7.85205 8.36779 7.85838 8.35315 7.86927 8.34226C7.88015 8.33136 7.89477 8.32503 7.91016 8.32454Z" stroke="white" stroke-width="0.8" mask="url(#path-1-outside-1_1_1438)"/>
</svg>
