<svg width="20" height="16" viewBox="0 0 20 16" fill="none" xmlns="http://www.w3.org/2000/svg">
<path d="M7.11111 10.666C4.73778 10.666 0 11.8571 0 14.2216V15.9993H14.2222V14.2216C14.2222 11.8571 9.48445 10.666 7.11111 10.666Z" fill="#6772E5"/>
<path d="M18.7572 3.41333C18.766 3.31556 18.7749 3.21778 18.7749 3.11111C18.7749 3.00444 18.766 2.90667 18.7483 2.80889L19.406 2.29333C19.4683 2.24889 19.4772 2.16 19.4416 2.09778L18.8194 1.02222C18.7838 0.951111 18.6949 0.933333 18.6327 0.951111L17.8683 1.26222C17.7083 1.13778 17.5305 1.04 17.3438 0.96L17.2283 0.133333C17.2105 0.0533334 17.1483 0 17.0683 0H15.8238C15.7438 0 15.6816 0.0533334 15.6727 0.133333L15.5572 0.96C15.3705 1.04 15.1927 1.14667 15.0327 1.26222L14.2594 0.951111C14.1883 0.924445 14.1083 0.951111 14.0727 1.02222L13.4505 2.09778C13.4149 2.16889 13.4238 2.24889 13.486 2.29333L14.1438 2.80889C14.126 2.90667 14.1171 3.01333 14.1171 3.11111C14.1171 3.20889 14.126 3.31556 14.1438 3.41333L13.486 3.92889C13.4238 3.97333 13.4149 4.06222 13.4505 4.12444L14.0727 5.2C14.1083 5.27111 14.1972 5.28889 14.2594 5.27111L15.0327 4.96C15.1927 5.08444 15.3705 5.18222 15.5572 5.26222L15.6727 6.08889C15.6816 6.16889 15.7438 6.22222 15.8238 6.22222H17.0683C17.1483 6.22222 17.2105 6.16889 17.2194 6.08889L17.3349 5.26222C17.5216 5.18222 17.6994 5.07556 17.8594 4.96L18.6327 5.27111C18.7038 5.29778 18.7838 5.27111 18.8194 5.2L19.4416 4.12444C19.4772 4.05333 19.4683 3.97333 19.406 3.92889L18.7572 3.41333ZM16.446 4.22222C15.8327 4.22222 15.3349 3.72444 15.3349 3.11111C15.3349 2.49778 15.8327 2 16.446 2C17.0594 2 17.5572 2.49778 17.5572 3.11111C17.5572 3.72444 17.0594 4.22222 16.446 4.22222Z" fill="#6772E5"/>
<path d="M16.8229 7.71599L16.3784 6.94266C16.3518 6.88932 16.2895 6.87155 16.2451 6.88932L15.694 7.11155C15.5784 7.02266 15.454 6.95155 15.3207 6.89821L15.2407 6.31155C15.2229 6.25821 15.1695 6.22266 15.1162 6.22266H14.2273C14.174 6.22266 14.1295 6.25821 14.1207 6.32043L14.0407 6.9071C13.9073 6.96043 13.7829 7.04043 13.6673 7.12043L13.1162 6.89821C13.0629 6.88043 13.0095 6.89821 12.9829 6.95154L12.5384 7.72488C12.5118 7.77821 12.5207 7.83155 12.5651 7.8671L13.0362 8.23155C13.0273 8.30266 13.0184 8.37377 13.0184 8.44488C13.0184 8.51599 13.0273 8.59599 13.0362 8.65821L12.5651 9.02266C12.5207 9.05821 12.5118 9.12043 12.5384 9.16488L12.9829 9.93821C13.0095 9.99155 13.0718 10.0093 13.1162 9.99155L13.6673 9.76932C13.7829 9.85821 13.9073 9.92932 14.0407 9.98266L14.1207 10.5693C14.1295 10.6315 14.174 10.6671 14.2273 10.6671H15.1162C15.1695 10.6671 15.2229 10.6315 15.2229 10.5693L15.3029 9.98266C15.4362 9.92932 15.5607 9.84932 15.6762 9.76932L16.2273 9.99155C16.2807 10.0093 16.334 9.99155 16.3607 9.93821L16.8051 9.16488C16.8318 9.11155 16.8229 9.05821 16.7784 9.02266L16.3162 8.65821C16.3251 8.5871 16.334 8.51599 16.334 8.44488C16.334 8.37377 16.3251 8.29377 16.3162 8.23155L16.7873 7.8671C16.8318 7.83155 16.8407 7.76932 16.8229 7.71599ZM14.6718 9.18266C14.2629 9.18266 13.934 8.84488 13.934 8.44488C13.934 8.03599 14.2718 7.7071 14.6718 7.7071C15.0718 7.7071 15.4095 8.04488 15.4095 8.44488C15.4095 8.85377 15.0807 9.18266 14.6718 9.18266Z" fill="#6772E5"/>
<path d="M3.32618 5.33312H10.9084C11.1484 5.33312 11.344 5.13756 11.344 4.89756V4.87978C11.344 4.63978 11.1484 4.44423 10.9084 4.44423H10.6684C10.6684 3.12867 9.9484 1.99978 8.89063 1.37756V2.22201C8.89063 2.47089 8.69507 2.66645 8.44618 2.66645C8.19729 2.66645 8.00174 2.47089 8.00174 2.22201V1.01312C7.71729 0.942005 7.42396 0.888672 7.11285 0.888672C6.80174 0.888672 6.5084 0.942005 6.22396 1.01312V2.22201C6.22396 2.47089 6.0284 2.66645 5.77951 2.66645C5.53063 2.66645 5.33507 2.47089 5.33507 2.22201V1.37756C4.27729 1.99978 3.55729 3.12867 3.55729 4.44423H3.32618C3.08618 4.44423 2.89062 4.63978 2.89062 4.87978V4.90645C2.89062 5.13756 3.08618 5.33312 3.32618 5.33312Z" fill="#6772E5"/>
<path d="M7.11861 8.88932C8.77194 8.88932 10.1497 7.75155 10.5497 6.22266H3.6875C4.0875 7.75155 5.46528 8.88932 7.11861 8.88932Z" fill="#6772E5"/>
</svg>
