<svg width="17" height="16" viewBox="0 0 17 16" fill="none" xmlns="http://www.w3.org/2000/svg">
<path d="M12.4444 7.11111C12.7467 7.11111 13.04 7.14667 13.3333 7.19111V2.90667L6.66667 0L0 2.90667V7.27111C0 11.3067 2.84444 15.0844 6.66667 16C7.15556 15.8844 7.62667 15.7156 8.08889 15.5111C7.47556 14.64 7.11111 13.5822 7.11111 12.4444C7.11111 9.50222 9.50222 7.11111 12.4444 7.11111Z" fill="#5E72E4"/>
<path d="M12.4462 8.88867C10.4817 8.88867 8.89062 10.4798 8.89062 12.4442C8.89062 14.4087 10.4817 15.9998 12.4462 15.9998C14.4106 15.9998 16.0017 14.4087 16.0017 12.4442C16.0017 10.4798 14.4106 8.88867 12.4462 8.88867ZM12.4462 10.1153C12.9973 10.1153 13.4417 10.5687 13.4417 11.1109C13.4417 11.6531 12.9884 12.1065 12.4462 12.1065C11.904 12.1065 11.4506 11.6531 11.4506 11.1109C11.4506 10.5687 11.8951 10.1153 12.4462 10.1153ZM12.4462 14.8887C11.6195 14.8887 10.8995 14.4798 10.4551 13.8487C10.4995 13.2087 11.7973 12.8887 12.4462 12.8887C13.0951 12.8887 14.3928 13.2087 14.4373 13.8487C13.9928 14.4798 13.2728 14.8887 12.4462 14.8887Z" fill="#5E72E4"/>
</svg>
