<svg width="16" height="16" viewBox="0 0 16 16" fill="none" xmlns="http://www.w3.org/2000/svg">
<g clip-path="url(#clip0_164_1435)">
<path d="M13.3333 6.66667V5.33333C13.3333 3.91885 12.7714 2.56229 11.7712 1.5621C10.771 0.561903 9.41448 0 7.99999 0C6.5855 0 5.22895 0.561903 4.22875 1.5621C3.22856 2.56229 2.66666 3.91885 2.66666 5.33333V6.66667C2.65028 7.07331 2.55025 7.47222 2.3728 7.83847C2.19536 8.20472 1.9443 8.53045 1.63532 8.79533C1.08012 9.26842 0.732379 9.94021 0.666656 10.6667C0.666656 12.3333 3.40799 13.3333 7.99999 13.3333C12.592 13.3333 15.3333 12.3333 15.3333 10.6667C15.2676 9.94021 14.9199 9.26842 14.3647 8.79533C14.0557 8.53045 13.8046 8.20472 13.6272 7.83847C13.4497 7.47222 13.3497 7.07331 13.3333 6.66667Z" fill="white"/>
<path d="M6.09665 14.6C6.22371 15.0053 6.47685 15.3595 6.81919 15.6109C7.16154 15.8624 7.57521 15.998 7.99998 15.998C8.42475 15.998 8.83843 15.8624 9.18077 15.6109C9.52312 15.3595 9.77625 15.0053 9.90332 14.6C9.30732 14.644 8.67398 14.6666 7.99998 14.6666C7.32598 14.6666 6.69265 14.6453 6.09665 14.6Z" fill="white"/>
</g>
<defs>
<clipPath id="clip0_164_1435">
<rect width="16" height="16" fill="white"/>
</clipPath>
</defs>
</svg>
