<svg width="16" height="17" viewBox="0 0 16 17" fill="none" xmlns="http://www.w3.org/2000/svg">
<path d="M13.3306 0.399597H2.66405C1.53072 0.399597 0.664062 1.26626 0.664062 2.39958V15.7328C0.664062 16.1328 0.930727 16.3995 1.33072 16.3995H14.6639C15.0639 16.3995 15.3306 16.1328 15.3306 15.7328V2.39958C15.3306 1.26626 14.4639 0.399597 13.3306 0.399597ZM7.99734 11.0662C5.79735 11.0662 3.99737 9.26619 3.99737 7.06621C3.99737 6.66621 4.26403 6.39955 4.66403 6.39955C5.06403 6.39955 5.33069 6.66621 5.33069 7.06621C5.33069 8.53286 6.53068 9.73285 7.99734 9.73285C9.46399 9.73285 10.664 8.53286 10.664 7.06621C10.664 6.66621 10.9306 6.39955 11.3306 6.39955C11.7306 6.39955 11.9973 6.66621 11.9973 7.06621C11.9973 9.26619 10.1973 11.0662 7.99734 11.0662ZM13.3306 3.06624H2.66405C2.26405 3.06624 1.99738 2.79958 1.99738 2.39958C1.99738 1.99958 2.26405 1.73292 2.66405 1.73292H13.3306C13.7306 1.73292 13.9973 1.99958 13.9973 2.39958C13.9973 2.79958 13.7306 3.06624 13.3306 3.06624Z" fill="#5E72E4"/>
</svg>
