<svg width="16" height="17" viewBox="0 0 16 17" fill="none" xmlns="http://www.w3.org/2000/svg">
<path d="M14.6667 7.35534H13.846C13.6961 6.69729 13.4355 6.06948 13.0753 5.49868L13.6567 4.91734C13.8995 4.66587 14.0339 4.32907 14.0309 3.97947C14.0279 3.62988 13.8876 3.29546 13.6404 3.04825C13.3932 2.80104 13.0588 2.66081 12.7092 2.65778C12.3596 2.65474 12.0228 2.78913 11.7713 3.03201L11.19 3.61334C10.6192 3.25321 9.99138 2.99262 9.33333 2.84267V2.02201C9.33333 1.66839 9.19286 1.32925 8.94281 1.0792C8.69276 0.829151 8.35362 0.688675 8 0.688675C7.64638 0.688675 7.30724 0.829151 7.05719 1.0792C6.80714 1.32925 6.66667 1.66839 6.66667 2.02201V2.84267C6.00862 2.99262 5.38081 3.25321 4.81 3.61334L4.22867 3.03201C3.9772 2.78913 3.64039 2.65474 3.2908 2.65778C2.9412 2.66081 2.60679 2.80104 2.35958 3.04825C2.11236 3.29546 1.97214 3.62988 1.9691 3.97947C1.96606 4.32907 2.10046 4.66587 2.34333 4.91734L2.92467 5.49868C2.56454 6.06948 2.30395 6.69729 2.154 7.35534H1.33333C0.979711 7.35534 0.640573 7.49582 0.390524 7.74587C0.140476 7.99591 0 8.33505 0 8.68867C0 9.0423 0.140476 9.38144 0.390524 9.63148C0.640573 9.88153 0.979711 10.022 1.33333 10.022H2.154C2.30395 10.6801 2.56454 11.3079 2.92467 11.8787L2.34333 12.46C2.10046 12.7115 1.96606 13.0483 1.9691 13.3979C1.97214 13.7475 2.11236 14.0819 2.35958 14.3291C2.60679 14.5763 2.9412 14.7165 3.2908 14.7196C3.64039 14.7226 3.9772 14.5882 4.22867 14.3453L4.81 13.764C5.38081 14.1241 6.00862 14.3847 6.66667 14.5347V15.3553C6.66667 15.709 6.80714 16.0481 7.05719 16.2982C7.30724 16.5482 7.64638 16.6887 8 16.6887C8.35362 16.6887 8.69276 16.5482 8.94281 16.2982C9.19286 16.0481 9.33333 15.709 9.33333 15.3553V14.5347C9.99138 14.3847 10.6192 14.1241 11.19 13.764L11.7713 14.3453C12.0228 14.5882 12.3596 14.7226 12.7092 14.7196C13.0588 14.7165 13.3932 14.5763 13.6404 14.3291C13.8876 14.0819 14.0279 13.7475 14.0309 13.3979C14.0339 13.0483 13.8995 12.7115 13.6567 12.46L13.0753 11.8787C13.4355 11.3079 13.6961 10.6801 13.846 10.022H14.6667C15.0203 10.022 15.3594 9.88153 15.6095 9.63148C15.8595 9.38144 16 9.0423 16 8.68867C16 8.33505 15.8595 7.99591 15.6095 7.74587C15.3594 7.49582 15.0203 7.35534 14.6667 7.35534ZM8 11.3553C7.47258 11.3553 6.95701 11.1989 6.51848 10.9059C6.07995 10.6129 5.73815 10.1964 5.53632 9.70916C5.33449 9.2219 5.28168 8.68572 5.38457 8.16843C5.48747 7.65115 5.74144 7.176 6.11438 6.80306C6.48732 6.43012 6.96248 6.17614 7.47976 6.07325C7.99704 5.97035 8.53322 6.02316 9.02049 6.225C9.50776 6.42683 9.92424 6.76862 10.2173 7.20715C10.5103 7.64569 10.6667 8.16126 10.6667 8.68867C10.6667 9.39592 10.3857 10.0742 9.88562 10.5743C9.38552 11.0744 8.70724 11.3553 8 11.3553Z" fill="#5E72E4"/>
</svg>
