<svg width="16" height="16" viewBox="0 0 16 16" fill="none" xmlns="http://www.w3.org/2000/svg">
<path d="M15.9975 1.6421C15.8207 1.49895 14.0354 0 11.366 0C8.68806 0 6.91122 1.49895 6.73438 1.6421L11.366 7.57895L15.9975 1.6421Z" fill="#5E72E4"/>
<path d="M14.3158 10.5347C13.2716 10.5347 12.2526 10.3663 11.3095 10.0547C11.0147 9.95368 10.6779 10.0295 10.4505 10.2568L8.59789 12.1095C6.21474 10.8884 4.26105 8.94316 3.04842 6.56L4.90105 4.70737C5.13684 4.47158 5.20421 4.14316 5.11158 3.84842C4.8 2.90526 4.63158 1.89474 4.63158 0.842105C4.63158 0.378947 4.25263 0 3.78947 0H0.842105C0.378947 0 0 0.378947 0 0.842105C0 8.74947 6.40842 15.1579 14.3158 15.1579C14.7789 15.1579 15.1579 14.7789 15.1579 14.3158V11.3768C15.1579 10.9137 14.7789 10.5347 14.3158 10.5347Z" fill="#5E72E4"/>
</svg>
