<svg width="16" height="16" viewBox="0 0 16 16" fill="none" xmlns="http://www.w3.org/2000/svg">
<path d="M10.3073 9.34869C9.61601 9.75469 8.83868 10 8.00001 10C7.16134 10 6.38401 9.75469 5.69268 9.34869C3.26268 9.50803 1.33334 11.5307 1.33334 14V15.1534L1.79668 15.302C1.88601 15.33 4.02534 16 8.00001 16C11.9747 16 14.114 15.33 14.2033 15.302L14.6667 15.1534V14C14.6667 11.5307 12.7373 9.50803 10.3073 9.34869Z" fill="white"/>
<path d="M8 8.66667C10.2527 8.66667 12 6.158 12 4C12 1.794 10.206 0 8 0C5.794 0 4 1.794 4 4C4 6.158 5.74733 8.66667 8 8.66667Z" fill="white"/>
</svg>
