<svg width="12" height="19" viewBox="0 0 12 19" fill="none" xmlns="http://www.w3.org/2000/svg">
<path d="M11.1429 5.99958C11.1429 3.02058 8.83714 0.599579 6 0.599579C3.16286 0.599579 0.857143 3.02058 0.857143 5.99958C0.857143 10.0496 6 15.8996 6 15.8996C6 15.8996 11.1429 10.0496 11.1429 5.99958ZM4.28571 5.99958C4.28571 5.00958 5.05714 4.19958 6 4.19958C6.94286 4.19958 7.71429 5.00958 7.71429 5.99958C7.71429 6.98958 6.95143 7.79958 6 7.79958C5.05714 7.79958 4.28571 6.98958 4.28571 5.99958ZM0 16.7996V18.5996H12V16.7996H0Z" fill="#5E72E4"/>
</svg>
